<svg width="293" height="60" viewBox="0 0 293 60" fill="none" xmlns="http://www.w3.org/2000/svg">
<g clip-path="url(#clip0_1_7)">
<path d="M45 36.4286C44.9998 40.023 44.0953 43.5597 42.37 46.7129C40.6447 49.8662 38.1538 52.5348 35.1268 54.4731C32.0997 56.4114 28.6337 57.5572 25.0478 57.8048C21.4619 58.0525 17.8713 57.3941 14.6066 55.8903C11.3418 54.3866 8.50777 52.0857 6.36532 49.1995C4.22287 46.3134 2.84086 42.9346 2.3465 39.3743C1.85213 35.8141 2.2613 32.1866 3.53634 28.8259C4.81138 25.4652 6.91132 22.4792 9.64286 20.1429" stroke="white" stroke-width="4.28571" stroke-linecap="round" stroke-linejoin="round"/>
<path d="M22.6286 28.5C22.1757 29.4351 21.9412 30.461 21.9429 31.5C21.9372 32.3627 22.1029 33.2179 22.4304 34.016C22.7579 34.8142 23.2407 35.5393 23.8507 36.1493C24.4607 36.7593 25.1858 37.2421 25.984 37.5696C26.7821 37.8971 27.6373 38.0628 28.5 38.0571C29.3752 38.0571 30.2146 38.4048 30.8335 39.0237C31.4523 39.6426 31.8 40.4819 31.8 41.3571V56.2286M2.44286 39.7286H10.3714C11.2525 39.7057 12.1292 39.8595 12.9498 40.1809C13.7705 40.5023 14.5184 40.9848 15.1496 41.6C15.7807 42.2152 16.2822 42.9505 16.6246 43.7626C16.9669 44.5748 17.1432 45.4472 17.1429 46.3286V56.8286M56.8286 8.01429L52.5429 6.55714C52.2416 6.45482 51.9152 6.45389 51.6134 6.55449C51.3116 6.65509 51.051 6.8517 50.8714 7.11429L47.7429 11.9571L30.6 3.38572C29.2451 2.58724 27.7305 2.09808 26.1646 1.95326C24.5986 1.80843 23.02 2.01151 21.5416 2.54797C20.0633 3.08442 18.7218 3.941 17.6131 5.0564C16.5045 6.1718 15.6561 7.51845 15.1286 9C14.9832 9.38435 14.9207 9.7951 14.9453 10.2053C14.9699 10.6155 15.0809 11.0158 15.2711 11.3801C15.4613 11.7443 15.7264 12.0642 16.049 12.3188C16.3716 12.5734 16.7444 12.7568 17.1429 12.8571L28.3286 16.4571L29.4429 16.8429L31.5429 24.0429C31.6103 24.2936 31.7399 24.5232 31.9197 24.7105C32.0995 24.8978 32.3237 25.0367 32.5714 25.1143L37.6286 26.7429C37.8868 26.827 38.1622 26.8434 38.4285 26.7905C38.6949 26.7376 38.9432 26.6172 39.1496 26.4409C39.3561 26.2645 39.5138 26.0381 39.6077 25.7833C39.7016 25.5285 39.7284 25.2539 39.6857 24.9857L38.5714 19.6286H39.3L50.2286 23.1857C50.9448 23.4326 51.7295 23.3865 52.4119 23.0573C53.0942 22.7282 53.6188 22.1428 53.8714 21.4286L57.7286 9.55714C57.771 9.23657 57.7056 8.91097 57.5427 8.63165C57.3797 8.35232 57.1285 8.13513 56.8286 8.01429Z" stroke="white" stroke-width="4.28571" stroke-linecap="round" stroke-linejoin="round"/>
</g>
<path d="M104.512 19.456C104.512 20.096 104.373 20.576 104.096 20.896C103.84 21.216 103.413 21.376 102.816 21.376C102.773 21.824 102.677 22.6027 102.528 23.712C102.315 25.2053 102.197 26.0373 102.176 26.208C100.277 40.352 96.32 47.424 90.304 47.424C88.5333 47.424 87.1467 46.9227 86.144 45.92C85.1627 44.9173 84.672 43.6587 84.672 42.144C84.672 39.4347 85.824 37.0453 88.128 34.976C90.432 32.8853 93.4613 31.1573 97.216 29.792C97.4507 28.2773 97.632 26.9227 97.76 25.728L98.336 20.896C97.056 20.768 95.8613 20.704 94.752 20.704C91.7867 20.704 89.6 20.992 88.192 21.568C86.784 22.144 86.08 23.0827 86.08 24.384C86.08 25.024 86.2933 25.7173 86.72 26.464C86.848 26.6773 86.912 26.9013 86.912 27.136C86.912 27.584 86.6773 27.9893 86.208 28.352C85.76 28.6933 85.2693 28.864 84.736 28.864C84.0533 28.864 83.5307 28.576 83.168 28C82.5707 27.0187 82.272 25.8773 82.272 24.576C82.272 19.456 86.752 16.896 95.712 16.896C98.3147 16.896 100.64 17.152 102.688 17.664C103.904 17.9627 104.512 18.56 104.512 19.456ZM90.72 44C91.7653 44 92.8107 43.2107 93.856 41.632C94.9013 40.0533 95.8187 37.2907 96.608 33.344C91.4027 35.6267 88.8 38.4213 88.8 41.728C88.8 42.4533 88.9707 43.0187 89.312 43.424C89.6533 43.808 90.1227 44 90.72 44ZM120.2 34.176C120.477 34.176 120.69 34.3147 120.84 34.592C120.989 34.8693 121.064 35.2213 121.064 35.648C121.064 36.672 120.754 37.28 120.136 37.472C118.856 37.92 117.448 38.176 115.912 38.24C115.506 40.032 114.706 41.472 113.512 42.56C112.317 43.6267 110.962 44.16 109.448 44.16C108.168 44.16 107.069 43.8507 106.152 43.232C105.256 42.6133 104.573 41.792 104.104 40.768C103.634 39.744 103.4 38.6347 103.4 37.44C103.4 35.8187 103.709 34.3787 104.328 33.12C104.946 31.84 105.8 30.848 106.888 30.144C107.976 29.4187 109.181 29.056 110.504 29.056C112.125 29.056 113.426 29.6213 114.408 30.752C115.41 31.8613 115.997 33.2373 116.168 34.88C117.17 34.816 118.365 34.6027 119.752 34.24C119.922 34.1973 120.072 34.176 120.2 34.176ZM109.704 40.768C110.386 40.768 110.973 40.4907 111.464 39.936C111.976 39.3813 112.317 38.5813 112.488 37.536C111.826 37.088 111.314 36.5013 110.952 35.776C110.61 35.0507 110.44 34.2827 110.44 33.472C110.44 33.1307 110.472 32.7893 110.536 32.448H110.376C109.522 32.448 108.808 32.864 108.232 33.696C107.677 34.5067 107.4 35.6587 107.4 37.152C107.4 38.3253 107.624 39.2213 108.072 39.84C108.541 40.4587 109.085 40.768 109.704 40.768ZM121.581 44.16C120.621 44.16 119.832 43.7227 119.213 42.848C118.616 41.952 118.317 40.8427 118.317 39.52C118.317 37.92 118.424 36.4587 118.637 35.136C118.851 33.792 119.203 32.3733 119.693 30.88C119.907 30.24 120.205 29.7813 120.589 29.504C120.973 29.2267 121.581 29.088 122.413 29.088C122.883 29.088 123.203 29.1627 123.373 29.312C123.565 29.4613 123.661 29.6853 123.661 29.984C123.661 30.1547 123.544 30.7307 123.309 31.712C123.096 32.5013 122.925 33.216 122.797 33.856C122.371 36.096 122.157 37.5893 122.157 38.336C122.157 38.784 122.211 39.104 122.317 39.296C122.424 39.4667 122.595 39.552 122.829 39.552C123.149 39.552 123.544 39.232 124.013 38.592C124.504 37.952 125.016 36.9813 125.549 35.68C126.104 34.3787 126.637 32.7787 127.149 30.88C127.32 30.24 127.576 29.7813 127.917 29.504C128.28 29.2267 128.813 29.088 129.517 29.088C130.008 29.088 130.349 29.152 130.541 29.28C130.733 29.3867 130.829 29.6 130.829 29.92C130.829 30.4533 130.563 31.9147 130.029 34.304C129.432 37.0347 129.133 38.72 129.133 39.36C129.133 39.7653 129.219 40.0853 129.389 40.32C129.56 40.5333 129.784 40.64 130.061 40.64C130.488 40.64 130.989 40.384 131.565 39.872C132.163 39.3387 132.952 38.4853 133.933 37.312C134.189 37.0133 134.477 36.864 134.797 36.864C135.075 36.864 135.288 36.992 135.437 37.248C135.608 37.504 135.693 37.856 135.693 38.304C135.693 39.1573 135.491 39.8187 135.085 40.288C134.168 41.4187 133.176 42.3467 132.109 43.072C131.064 43.7973 129.869 44.16 128.525 44.16C127.501 44.16 126.744 43.7653 126.253 42.976C125.784 42.1867 125.549 41.0773 125.549 39.648C125.187 41.0987 124.643 42.2187 123.917 43.008C123.192 43.776 122.413 44.16 121.581 44.16ZM135.371 44.16C134.56 44.16 133.984 43.7333 133.643 42.88C133.323 42.0267 133.163 40.6613 133.163 38.784C133.163 36.0107 133.557 33.376 134.347 30.88C134.539 30.2613 134.848 29.8133 135.275 29.536C135.723 29.2373 136.341 29.088 137.131 29.088C137.557 29.088 137.856 29.1413 138.027 29.248C138.197 29.3547 138.283 29.5573 138.283 29.856C138.283 30.1973 138.123 30.9653 137.803 32.16C137.589 33.0133 137.419 33.76 137.291 34.4C137.163 35.04 137.056 35.8293 136.971 36.768C137.675 34.9333 138.464 33.44 139.339 32.288C140.213 31.136 141.067 30.3147 141.899 29.824C142.752 29.3333 143.531 29.088 144.235 29.088C145.621 29.088 146.315 29.7813 146.315 31.168C146.315 31.4453 146.219 32.1173 146.027 33.184C145.856 34.0373 145.771 34.5707 145.771 34.784C145.771 35.5307 146.037 35.904 146.571 35.904C147.168 35.904 147.936 35.4347 148.875 34.496C149.152 34.2187 149.44 34.08 149.739 34.08C150.016 34.08 150.229 34.208 150.378 34.464C150.549 34.6987 150.635 35.0187 150.635 35.424C150.635 36.2133 150.421 36.832 149.995 37.28C149.397 37.8987 148.693 38.432 147.883 38.88C147.093 39.3067 146.251 39.52 145.355 39.52C144.224 39.52 143.36 39.232 142.763 38.656C142.187 38.08 141.899 37.3013 141.899 36.32C141.899 36 141.931 35.68 141.995 35.36C142.037 34.9333 142.059 34.6453 142.059 34.496C142.059 34.1547 141.941 33.984 141.707 33.984C141.387 33.984 140.96 34.3467 140.427 35.072C139.915 35.776 139.403 36.7147 138.891 37.888C138.379 39.0613 137.963 40.2987 137.643 41.6C137.408 42.6027 137.131 43.2853 136.811 43.648C136.512 43.9893 136.032 44.16 135.371 44.16ZM149.933 44.16C149.122 44.16 148.546 43.7333 148.205 42.88C147.885 42.0267 147.725 40.6613 147.725 38.784C147.725 36.0107 148.12 33.376 148.909 30.88C149.101 30.2613 149.41 29.8133 149.837 29.536C150.285 29.2373 150.904 29.088 151.693 29.088C152.12 29.088 152.418 29.1413 152.589 29.248C152.76 29.3547 152.845 29.5573 152.845 29.856C152.845 30.1973 152.685 30.9653 152.365 32.16C152.152 33.0133 151.981 33.76 151.853 34.4C151.725 35.04 151.618 35.8293 151.533 36.768C152.237 34.9333 153.026 33.44 153.901 32.288C154.776 31.136 155.629 30.3147 156.461 29.824C157.314 29.3333 158.093 29.088 158.797 29.088C160.184 29.088 160.877 29.7813 160.877 31.168C160.877 32 160.642 33.504 160.173 35.68C159.768 37.536 159.565 38.7627 159.565 39.36C159.565 40.2133 159.874 40.64 160.493 40.64C160.92 40.64 161.421 40.384 161.997 39.872C162.594 39.3387 163.384 38.4853 164.365 37.312C164.621 37.0133 164.909 36.864 165.229 36.864C165.506 36.864 165.72 36.992 165.869 37.248C166.04 37.504 166.125 37.856 166.125 38.304C166.125 39.1573 165.922 39.8187 165.517 40.288C164.6 41.4187 163.608 42.3467 162.541 43.072C161.496 43.7973 160.301 44.16 158.957 44.16C157.869 44.16 157.048 43.8507 156.493 43.232C155.938 42.592 155.661 41.6747 155.661 40.48C155.661 39.8827 155.81 38.816 156.109 37.28C156.386 35.936 156.525 35.008 156.525 34.496C156.525 34.1547 156.408 33.984 156.173 33.984C155.896 33.984 155.501 34.3467 154.989 35.072C154.498 35.776 153.986 36.7147 153.453 37.888C152.941 39.0613 152.525 40.2987 152.205 41.6C151.97 42.6027 151.693 43.2853 151.373 43.648C151.074 43.9893 150.594 44.16 149.933 44.16ZM177.808 36.864C178.085 36.864 178.299 36.992 178.448 37.248C178.619 37.504 178.704 37.856 178.704 38.304C178.704 39.1573 178.501 39.8187 178.096 40.288C177.307 41.248 176.187 42.1333 174.736 42.944C173.307 43.7547 171.771 44.16 170.128 44.16C167.888 44.16 166.149 43.552 164.912 42.336C163.675 41.12 163.056 39.456 163.056 37.344C163.056 35.872 163.365 34.5067 163.984 33.248C164.603 31.968 165.456 30.9547 166.544 30.208C167.653 29.4613 168.901 29.088 170.288 29.088C171.525 29.088 172.517 29.4613 173.264 30.208C174.011 30.9333 174.384 31.9253 174.384 33.184C174.384 34.656 173.851 35.9253 172.784 36.992C171.739 38.0373 169.957 38.8693 167.44 39.488C167.973 40.4693 168.987 40.96 170.48 40.96C171.44 40.96 172.528 40.6293 173.744 39.968C174.981 39.2853 176.048 38.4 176.944 37.312C177.2 37.0133 177.488 36.864 177.808 36.864ZM169.744 32.224C168.955 32.224 168.283 32.6827 167.728 33.6C167.195 34.5173 166.928 35.6267 166.928 36.928V36.992C168.187 36.6933 169.179 36.2453 169.904 35.648C170.629 35.0507 170.992 34.3573 170.992 33.568C170.992 33.1627 170.875 32.8427 170.64 32.608C170.427 32.352 170.128 32.224 169.744 32.224ZM192.483 36.928C192.76 36.928 192.973 37.0667 193.123 37.344C193.293 37.6 193.378 37.9307 193.378 38.336C193.378 38.8267 193.304 39.2107 193.155 39.488C193.005 39.7653 192.771 40.0107 192.451 40.224L186.307 44.352C185.496 48.768 184.429 52.2347 183.107 54.752C181.805 57.2907 180.141 58.56 178.115 58.56C177.027 58.56 176.141 58.2187 175.459 57.536C174.776 56.8747 174.434 56 174.434 54.912C174.434 53.9093 174.659 52.8853 175.107 51.84C175.576 50.7947 176.429 49.5893 177.667 48.224C178.925 46.88 180.696 45.3333 182.979 43.584L183.075 42.848C183.224 42.0587 183.395 40.928 183.587 39.456C183.16 40.992 182.563 42.1653 181.795 42.976C181.027 43.7653 180.216 44.16 179.363 44.16C178.403 44.16 177.613 43.7227 176.995 42.848C176.397 41.952 176.099 40.8427 176.099 39.52C176.099 37.92 176.205 36.4587 176.419 35.136C176.632 33.792 176.984 32.3733 177.475 30.88C177.688 30.24 177.987 29.7813 178.371 29.504C178.755 29.2267 179.363 29.088 180.195 29.088C180.664 29.088 180.984 29.1627 181.155 29.312C181.347 29.4613 181.443 29.6853 181.443 29.984C181.443 30.1547 181.325 30.7307 181.091 31.712C180.877 32.5013 180.707 33.216 180.579 33.856C180.408 34.7307 180.259 35.5733 180.131 36.384C180.003 37.1733 179.939 37.824 179.939 38.336C179.939 39.1467 180.163 39.552 180.611 39.552C180.931 39.552 181.325 39.232 181.795 38.592C182.285 37.952 182.797 36.9813 183.331 35.68C183.885 34.3787 184.419 32.7787 184.931 30.88C185.101 30.24 185.357 29.7813 185.699 29.504C186.061 29.2267 186.595 29.088 187.299 29.088C187.789 29.088 188.131 29.152 188.323 29.28C188.515 29.408 188.611 29.6213 188.611 29.92C188.611 30.4533 188.333 32.288 187.779 35.424L186.947 40.576C188.589 39.3387 190.189 38.208 191.747 37.184C192.024 37.0133 192.269 36.928 192.483 36.928ZM178.467 55.456C179 55.456 179.597 54.8373 180.259 53.6C180.92 52.3627 181.581 50.304 182.243 47.424C180.6 48.8107 179.405 50.0693 178.659 51.2C177.933 52.352 177.571 53.3547 177.571 54.208C177.571 54.5707 177.635 54.8693 177.763 55.104C177.912 55.3387 178.147 55.456 178.467 55.456ZM214.387 19.456C214.387 20.096 214.248 20.576 213.971 20.896C213.715 21.216 213.288 21.376 212.691 21.376C212.648 21.824 212.552 22.6027 212.403 23.712C212.19 25.2053 212.072 26.0373 212.051 26.208C210.152 40.352 206.195 47.424 200.179 47.424C198.408 47.424 197.022 46.9227 196.019 45.92C195.038 44.9173 194.547 43.6587 194.547 42.144C194.547 39.4347 195.699 37.0453 198.003 34.976C200.307 32.8853 203.336 31.1573 207.091 29.792C207.326 28.2773 207.507 26.9227 207.635 25.728L208.211 20.896C206.931 20.768 205.736 20.704 204.627 20.704C201.662 20.704 199.475 20.992 198.067 21.568C196.659 22.144 195.955 23.0827 195.955 24.384C195.955 25.024 196.168 25.7173 196.595 26.464C196.723 26.6773 196.787 26.9013 196.787 27.136C196.787 27.584 196.552 27.9893 196.083 28.352C195.635 28.6933 195.144 28.864 194.611 28.864C193.928 28.864 193.406 28.576 193.043 28C192.446 27.0187 192.147 25.8773 192.147 24.576C192.147 19.456 196.627 16.896 205.587 16.896C208.19 16.896 210.515 17.152 212.563 17.664C213.779 17.9627 214.387 18.56 214.387 19.456ZM200.595 44C201.64 44 202.686 43.2107 203.731 41.632C204.776 40.0533 205.694 37.2907 206.483 33.344C201.278 35.6267 198.675 38.4213 198.675 41.728C198.675 42.4533 198.846 43.0187 199.187 43.424C199.528 43.808 199.998 44 200.595 44ZM217.175 44.16C216.215 44.16 215.426 43.7227 214.807 42.848C214.21 41.952 213.911 40.8427 213.911 39.52C213.911 37.92 214.018 36.4587 214.231 35.136C214.444 33.792 214.796 32.3733 215.287 30.88C215.5 30.24 215.799 29.7813 216.183 29.504C216.567 29.2267 217.175 29.088 218.007 29.088C218.476 29.088 218.796 29.1627 218.967 29.312C219.159 29.4613 219.255 29.6853 219.255 29.984C219.255 30.1547 219.138 30.7307 218.903 31.712C218.69 32.5013 218.519 33.216 218.391 33.856C217.964 36.096 217.751 37.5893 217.751 38.336C217.751 38.784 217.804 39.104 217.911 39.296C218.018 39.4667 218.188 39.552 218.423 39.552C218.743 39.552 219.138 39.232 219.607 38.592C220.098 37.952 220.61 36.9813 221.143 35.68C221.698 34.3787 222.231 32.7787 222.743 30.88C222.914 30.24 223.17 29.7813 223.511 29.504C223.874 29.2267 224.407 29.088 225.111 29.088C225.602 29.088 225.943 29.152 226.135 29.28C226.327 29.3867 226.423 29.6 226.423 29.92C226.423 30.4533 226.156 31.9147 225.623 34.304C225.026 37.0347 224.727 38.72 224.727 39.36C224.727 39.7653 224.812 40.0853 224.983 40.32C225.154 40.5333 225.378 40.64 225.655 40.64C226.082 40.64 226.583 40.384 227.159 39.872C227.756 39.3387 228.546 38.4853 229.527 37.312C229.783 37.0133 230.071 36.864 230.391 36.864C230.668 36.864 230.882 36.992 231.031 37.248C231.202 37.504 231.287 37.856 231.287 38.304C231.287 39.1573 231.084 39.8187 230.679 40.288C229.762 41.4187 228.77 42.3467 227.703 43.072C226.658 43.7973 225.463 44.16 224.119 44.16C223.095 44.16 222.338 43.7653 221.847 42.976C221.378 42.1867 221.143 41.0773 221.143 39.648C220.78 41.0987 220.236 42.2187 219.511 43.008C218.786 43.776 218.007 44.16 217.175 44.16ZM230.964 44.16C230.154 44.16 229.578 43.7333 229.236 42.88C228.916 42.0267 228.756 40.6613 228.756 38.784C228.756 36.0107 229.151 33.376 229.94 30.88C230.132 30.2613 230.442 29.8133 230.868 29.536C231.316 29.2373 231.935 29.088 232.724 29.088C233.151 29.088 233.45 29.1413 233.62 29.248C233.791 29.3547 233.876 29.5573 233.876 29.856C233.876 30.1973 233.716 30.9653 233.396 32.16C233.183 33.0133 233.012 33.76 232.884 34.4C232.756 35.04 232.65 35.8293 232.564 36.768C233.268 34.9333 234.058 33.44 234.932 32.288C235.807 31.136 236.66 30.3147 237.492 29.824C238.346 29.3333 239.124 29.088 239.828 29.088C241.215 29.088 241.908 29.7813 241.908 31.168C241.908 32 241.674 33.504 241.204 35.68C240.799 37.536 240.596 38.7627 240.596 39.36C240.596 40.2133 240.906 40.64 241.524 40.64C241.951 40.64 242.452 40.384 243.028 39.872C243.626 39.3387 244.415 38.4853 245.396 37.312C245.652 37.0133 245.94 36.864 246.26 36.864C246.538 36.864 246.751 36.992 246.9 37.248C247.071 37.504 247.156 37.856 247.156 38.304C247.156 39.1573 246.954 39.8187 246.548 40.288C245.631 41.4187 244.639 42.3467 243.572 43.072C242.527 43.7973 241.332 44.16 239.988 44.16C238.9 44.16 238.079 43.8507 237.524 43.232C236.97 42.592 236.692 41.6747 236.692 40.48C236.692 39.8827 236.842 38.816 237.14 37.28C237.418 35.936 237.556 35.008 237.556 34.496C237.556 34.1547 237.439 33.984 237.204 33.984C236.927 33.984 236.532 34.3467 236.02 35.072C235.53 35.776 235.018 36.7147 234.484 37.888C233.972 39.0613 233.556 40.2987 233.236 41.6C233.002 42.6027 232.724 43.2853 232.404 43.648C232.106 43.9893 231.626 44.16 230.964 44.16ZM263.063 36.864C263.341 36.864 263.554 36.992 263.703 37.248C263.874 37.504 263.959 37.856 263.959 38.304C263.959 39.1573 263.757 39.8187 263.351 40.288C262.391 41.4613 261.421 42.4 260.439 43.104C259.458 43.808 258.295 44.16 256.951 44.16C255.309 44.16 253.986 43.6907 252.983 42.752C251.981 41.8133 251.479 40.5653 251.479 39.008C251.479 38.176 251.906 37.5787 252.759 37.216C253.698 36.8107 254.37 36.384 254.775 35.936C255.181 35.4667 255.383 34.9013 255.383 34.24C255.383 33.856 255.298 33.568 255.127 33.376C254.978 33.184 254.786 33.088 254.551 33.088C253.975 33.088 253.335 33.504 252.631 34.336C251.949 35.168 251.309 36.2453 250.711 37.568C250.114 38.8693 249.645 40.2133 249.303 41.6C249.069 42.6027 248.791 43.2853 248.471 43.648C248.173 43.9893 247.693 44.16 247.031 44.16C246.37 44.16 245.879 43.9253 245.559 43.456C245.261 42.9653 245.058 42.2187 244.951 41.216C244.845 40.2133 244.791 38.7413 244.791 36.8C244.791 33.5147 245.122 30.0907 245.783 26.528C246.466 22.9653 247.458 19.9787 248.759 17.568C250.082 15.136 251.661 13.92 253.495 13.92C254.477 13.92 255.266 14.3467 255.863 15.2C256.482 16.032 256.791 17.12 256.791 18.464C256.791 20.6187 256.162 22.8587 254.903 25.184C253.645 27.488 251.597 30.1867 248.759 33.28C248.695 34.3893 248.663 35.5307 248.663 36.704C249.687 34.0373 250.861 32.1067 252.183 30.912C253.506 29.696 254.743 29.088 255.895 29.088C256.962 29.088 257.815 29.4507 258.455 30.176C259.117 30.9013 259.447 31.7973 259.447 32.864C259.447 34.0373 259.149 35.1147 258.551 36.096C257.954 37.0773 256.93 37.952 255.479 38.72C255.565 39.296 255.821 39.7653 256.247 40.128C256.695 40.4693 257.229 40.64 257.847 40.64C258.509 40.64 259.149 40.384 259.767 39.872C260.386 39.36 261.197 38.5067 262.199 37.312C262.455 37.0133 262.743 36.864 263.063 36.864ZM252.823 17.088C252.439 17.088 252.013 17.6427 251.543 18.752C251.074 19.84 250.615 21.3227 250.167 23.2C249.741 25.056 249.389 27.0827 249.111 29.28C250.434 27.7227 251.522 26.0267 252.375 24.192C253.25 22.3573 253.687 20.6933 253.687 19.2C253.687 18.5173 253.613 17.9947 253.463 17.632C253.314 17.2693 253.101 17.088 252.823 17.088ZM265.572 26.976C264.676 26.976 264.004 26.7733 263.556 26.368C263.108 25.9413 262.884 25.3547 262.884 24.608C262.884 23.8613 263.172 23.2427 263.748 22.752C264.345 22.24 265.081 21.984 265.956 21.984C266.745 21.984 267.385 22.176 267.876 22.56C268.366 22.944 268.612 23.488 268.612 24.192C268.612 25.0453 268.334 25.728 267.78 26.24C267.225 26.7307 266.489 26.976 265.572 26.976ZM265.316 44.16C263.929 44.16 262.916 43.6693 262.276 42.688C261.657 41.7067 261.348 40.4053 261.348 38.784C261.348 37.824 261.465 36.5973 261.7 35.104C261.956 33.5893 262.276 32.1813 262.66 30.88C262.852 30.1973 263.108 29.728 263.428 29.472C263.748 29.216 264.26 29.088 264.964 29.088C266.052 29.088 266.596 29.4507 266.596 30.176C266.596 30.7093 266.393 31.9467 265.988 33.888C265.476 36.2347 265.22 37.824 265.22 38.656C265.22 39.296 265.305 39.7867 265.476 40.128C265.646 40.4693 265.934 40.64 266.34 40.64C266.724 40.64 267.204 40.3733 267.78 39.84C268.356 39.3067 269.124 38.464 270.084 37.312C270.34 37.0133 270.628 36.864 270.948 36.864C271.225 36.864 271.438 36.992 271.588 37.248C271.758 37.504 271.844 37.856 271.844 38.304C271.844 39.1573 271.641 39.8187 271.236 40.288C269.124 42.8693 267.15 44.16 265.316 44.16ZM283.527 36.864C283.804 36.864 284.017 36.992 284.167 37.248C284.337 37.504 284.423 37.856 284.423 38.304C284.423 39.1573 284.22 39.8187 283.815 40.288C283.025 41.248 281.905 42.1333 280.455 42.944C279.025 43.7547 277.489 44.16 275.847 44.16C273.607 44.16 271.868 43.552 270.631 42.336C269.393 41.12 268.775 39.456 268.775 37.344C268.775 35.872 269.084 34.5067 269.703 33.248C270.321 31.968 271.175 30.9547 272.263 30.208C273.372 29.4613 274.62 29.088 276.007 29.088C277.244 29.088 278.236 29.4613 278.983 30.208C279.729 30.9333 280.103 31.9253 280.103 33.184C280.103 34.656 279.569 35.9253 278.503 36.992C277.457 38.0373 275.676 38.8693 273.159 39.488C273.692 40.4693 274.705 40.96 276.199 40.96C277.159 40.96 278.247 40.6293 279.463 39.968C280.7 39.2853 281.767 38.4 282.663 37.312C282.919 37.0133 283.207 36.864 283.527 36.864ZM275.463 32.224C274.673 32.224 274.001 32.6827 273.447 33.6C272.913 34.5173 272.647 35.6267 272.647 36.928V36.992C273.905 36.6933 274.897 36.2453 275.623 35.648C276.348 35.0507 276.711 34.3573 276.711 33.568C276.711 33.1627 276.593 32.8427 276.359 32.608C276.145 32.352 275.847 32.224 275.463 32.224ZM287.769 44.864C286.66 44.864 285.807 44.608 285.209 44.096C284.633 43.584 284.345 43.008 284.345 42.368C284.345 41.8133 284.548 41.3333 284.953 40.928C285.359 40.5227 285.956 40.32 286.745 40.32C287.023 40.32 287.343 40.352 287.705 40.416C288.089 40.4587 288.377 40.4907 288.569 40.512C288.548 39.9573 288.42 39.4347 288.185 38.944C287.972 38.4533 287.695 37.984 287.353 37.536C287.012 37.0667 286.692 36.6613 286.393 36.32C285.732 37.5787 285.071 38.624 284.409 39.456C283.769 40.288 283.065 41.0773 282.297 41.824C281.913 42.208 281.508 42.4 281.081 42.4C280.74 42.4 280.463 42.2827 280.249 42.048C280.036 41.792 279.929 41.4827 279.929 41.12C279.929 40.6933 280.079 40.2987 280.377 39.936L280.793 39.424C281.967 37.9733 282.852 36.7787 283.449 35.84C283.833 35.2213 284.217 34.4853 284.601 33.632C285.007 32.7787 285.529 31.616 286.169 30.144C286.575 29.2053 287.417 28.736 288.697 28.736C289.295 28.736 289.711 28.7893 289.945 28.896C290.18 29.0027 290.297 29.1733 290.297 29.408C290.297 29.536 290.255 29.7387 290.169 30.016C290.084 30.2933 289.967 30.5707 289.817 30.848C289.433 31.616 289.241 32.2667 289.241 32.8C289.241 33.12 289.348 33.472 289.561 33.856C289.796 34.24 290.148 34.72 290.617 35.296C291.3 36.192 291.812 36.96 292.153 37.6C292.516 38.2187 292.697 38.9013 292.697 39.648C292.697 40.544 292.484 41.3973 292.057 42.208C291.652 42.9973 291.076 43.6373 290.329 44.128C289.583 44.6187 288.729 44.864 287.769 44.864Z" fill="white"/>
<defs>
<clipPath id="clip0_1_7">
<rect width="60" height="60" fill="white"/>
</clipPath>
</defs>
</svg>
